# xmcd
#
# Track frame offsets:
#	150
#	15242
#	26467
#	43720
#	61657
#	80242
#	96565
#	111937
#	125900
#	140457
#	156140
#	170900
#	182042
#	195910
#	212797
#	228855
#	244355
#	260575
#	274630
#	288477
#	306410
#	321335
#
# Disc length: 4475 seconds
#
# Revision: 1
# Processed by: cddbd v1.5.2PL0 Copyright (c) Steve Scherf et al.
# Submitted via: dBpowerAMP V4.0
#
DISCID=48117916
DTITLE=Time Life - Contemporary Country The Late 80's
DYEAR=1993
DGENRE=Country
TTITLE0=George Strait - All My Ex's In Texas
TTITLE1=Patty Loveless - A Little Bit In Love 
TTITLE2=Dwight Yoakam - I Sang Dixie
TTITLE3=T. Graham Brown - Don't Go To Strangers
TTITLE4=K.T. Oslin - 80's Ladies
TTITLE5=Keith Whitley - I'm No Stranger To The Rain
TTITLE6=Tanya Tucker - If It Don't Come Easy
TTITLE7=Steve Wariner - Lynda
TTITLE8=Holly Dunn - Love Someone Like Me
TTITLE9=Reba McEntire - One Promise Too Late
TTITLE10=Merle Maggard - Chill Factor
TTITLE11=Randy Travis - Too Gone Too Long
TTITLE12=Highway 101 - Whiskey If You Were A Woman
TTITLE13=Conway Twitty - She's Got A Single Thing In Mind
TTITLE14=Alabama - Fallin' Again
TTITLE15=Ronnie Milsap - Houston Solution
TTITLE16=Waylon Jennings - Rose In Paradise
TTITLE17=Sweetheart Of The Rodeo - Midnight Girl-/ Sunset Town 
TTITLE18=The Oak Ridge Boys - Gonna Take A Lot Of River
TTITLE19=Shenandoah - Sunday In The South
TTITLE20=Lee Greenwood - Mornin' Ride
TTITLE21=Skip Ewing - Burnin' A Hole In My Heart
EXTD=Contemporary Country The Late 80's Hot Hits
EXTT0=
EXTT1=
EXTT2=
EXTT3=
EXTT4=
EXTT5=
EXTT6=
EXTT7=
EXTT8=
EXTT9=
EXTT10=
EXTT11=
EXTT12=
EXTT13=
EXTT14=
EXTT15=
EXTT16=
EXTT17=
EXTT18=
EXTT19=
EXTT20=
EXTT21=
PLAYORDER=
